# This file uses centimeters as units for non-parametric coordinates.

mtllib Watch_Rock.mtl
g default
v 1.111314 2.074668 -1.828563
v 2.110462 3.179738 -0.015773
v -1.138522 2.074668 -1.811748
v -0.016174 -0.075515 -2.164041
v 2.164041 -0.075515 -0.016174
v 1.138522 2.074668 1.811748
v -2.110462 3.179738 0.015773
v -2.164041 -0.075514 0.016175
v 0.016174 -0.075514 2.164041
v -1.111314 2.074668 1.828563
v -0.875204 3.853071 -0.760476
v 0.863739 3.853071 -0.773473
v 0.639343 3.130034 -1.712233
v -0.664864 3.130034 -1.702485
v -0.639343 3.130034 1.712233
v 0.664864 3.130034 1.702485
v 0.875203 3.853071 0.760476
v -0.863739 3.853071 0.773473
v 0.863739 4.245106 -0.773473
v -0.875204 4.245106 -0.760476
v -0.863739 4.245106 0.773473
v 0.875203 4.245106 0.760476
v 0.673908 4.382744 -0.603481
v -0.682853 4.382744 -0.593340
v -0.673908 4.382744 0.603480
v 0.682853 4.382744 0.593340
v -2.252755 2.339541 0.016837
v 2.251882 2.395792 -0.016831
v -0.015999 2.074668 -2.140647
v -0.012761 3.130034 -1.707359
v -0.005732 3.853071 -0.766974
v -0.005732 4.245106 -0.766974
v -0.004473 4.382744 -0.598410
v 0.004472 4.382744 0.598410
v 0.005732 4.245106 0.766974
v 0.005732 3.853071 0.766974
v 0.012761 3.130034 1.707359
v 0.015999 2.074668 2.140647
vt 0.285132 0.231698
vt 0.091608 0.240568
vt 0.218309 0.015385
vt 0.245363 0.306372
vt 0.394431 0.114388
vt 0.323428 0.339993
vt 0.340024 0.297974
vt 0.446303 0.164168
vt 0.430501 0.297212
vt 0.776627 0.441748
vt 0.756230 0.612923
vt 0.684799 0.604822
vt 0.975194 0.580837
vt 0.610771 0.481912
vt 0.686724 0.421818
vt 0.934368 0.307217
vt 0.673160 0.375409
vt 0.761207 0.352538
vt 0.283230 0.549491
vt 0.365359 0.447131
vt 0.411973 0.557604
vt 0.670364 0.657993
vt 0.969142 0.663606
vt 0.963529 0.962384
vt 0.664752 0.956771
vt 0.567378 0.312445
vt 0.455460 0.249667
vt 0.569614 0.172073
vt 0.184279 0.687897
vt 0.298675 0.686690
vt 0.296570 0.892967
vt 0.182849 0.890156
vt 0.145725 0.655304
vt 0.298932 0.648847
vt 0.413168 0.689839
vt 0.410188 0.892028
vt 0.296315 0.930879
vt 0.144329 0.922320
vt 0.451812 0.657832
vt 0.448616 0.924791
vt 0.218884 0.386693
vt 0.304327 0.380912
vt 0.144849 0.588015
vt 0.299393 0.582113
vt 0.215456 0.547449
vt 0.453707 0.590518
vt 0.016700 0.487950
vt 0.077251 0.921607
vt 0.730840 0.267251
vt 0.632739 0.126841
vt 0.835257 0.049084
vt 0.662436 0.328284
vt 0.449606 0.992044
vt 0.577489 0.400199
vt 0.142337 0.989595
vt 0.518922 0.659179
vt 0.295860 0.997656
vt 0.408219 0.376570
vt 0.078693 0.655357
vt 0.515604 0.925372
vn 0.669841 0.445612 -0.593922
vn 0.669841 0.445612 -0.593922
vn 0.669841 0.445612 -0.593922
vn 0.669841 0.445612 -0.593922
vn 0.163205 0.282395 -0.945313
vn 0.163205 0.282395 -0.945313
vn 0.163206 0.282395 -0.945313
vn 0.163205 0.282395 -0.945313
vn -0.281164 0.010463 -0.959603
vn -0.281164 0.010463 -0.959603
vn -0.281164 0.010463 -0.959603
vn 0.679737 -0.248781 -0.689975
vn 0.679737 -0.248781 -0.689975
vn 0.679737 -0.248781 -0.689975
vn 0.824594 0.149489 -0.545616
vn 0.824594 0.149489 -0.545616
vn 0.824594 0.149489 -0.545616
vn 0.476878 0.878962 -0.003564
vn 0.476878 0.878962 -0.003564
vn 0.476878 0.878962 -0.003564
vn -0.689975 -0.248781 -0.679737
vn -0.689975 -0.248781 -0.679737
vn -0.689975 -0.248781 -0.679737
vn -0.000000 -1.000000 0.000000
vn -0.000000 -1.000000 0.000000
vn -0.000000 -1.000000 0.000000
vn 0.832658 0.149489 0.533230
vn 0.832658 0.149489 0.533230
vn 0.832658 0.149489 0.533230
vn 0.678643 0.445612 0.583843
vn 0.678643 0.445612 0.583843
vn 0.678643 0.445612 0.583843
vn 0.678643 0.445612 0.583843
vn -0.476878 0.878962 0.003564
vn -0.476878 0.878962 0.003564
vn -0.476878 0.878962 0.003564
vn -0.855543 -0.031286 -0.516786
vn -0.855543 -0.031286 -0.516786
vn -0.855543 -0.031286 -0.516786
vn 0.000000 -1.000000 0.000000
vn 0.000000 -1.000000 0.000000
vn 0.000000 -1.000000 0.000000
vn 0.689975 -0.248781 0.679737
vn 0.689975 -0.248781 0.679737
vn 0.689975 -0.248781 0.679737
vn 0.177317 0.282395 0.942768
vn 0.177317 0.282395 0.942768
vn 0.177317 0.282395 0.942768
vn 0.177317 0.282395 0.942768
vn -0.847722 -0.031285 0.529517
vn -0.847723 -0.031285 0.529517
vn -0.847722 -0.031285 0.529517
vn -0.679737 -0.248781 0.689975
vn -0.679737 -0.248781 0.689975
vn -0.679737 -0.248781 0.689975
vn 0.281164 0.010463 0.959603
vn 0.281164 0.010463 0.959603
vn 0.281164 0.010463 0.959603
vn -0.678644 0.445612 -0.583843
vn -0.678644 0.445612 -0.583844
vn -0.678644 0.445612 -0.583843
vn -0.678644 0.445612 -0.583843
vn -0.669841 0.445612 0.593922
vn -0.669841 0.445612 0.593922
vn -0.669841 0.445612 0.593922
vn -0.669841 0.445612 0.593922
vn 0.000000 1.000000 -0.000000
vn 0.000000 1.000000 -0.000000
vn 0.000000 1.000000 -0.000000
vn 0.000000 1.000000 -0.000000
vn -0.004555 0.792769 -0.609505
vn -0.004555 0.792769 -0.609505
vn -0.004555 0.792769 -0.609505
vn -0.004555 0.792769 -0.609505
vn 0.004555 0.792769 0.609505
vn 0.004555 0.792769 0.609505
vn 0.004555 0.792769 0.609505
vn 0.004555 0.792769 0.609505
vn -0.007474 0.000000 -0.999972
vn -0.007474 0.000000 -0.999972
vn -0.007474 0.000000 -0.999972
vn -0.007474 0.000000 -0.999972
vn -0.999972 0.000000 0.007474
vn -0.999972 0.000000 0.007474
vn -0.999972 0.000000 0.007474
vn -0.999972 0.000000 0.007474
vn 0.007474 0.000000 0.999972
vn 0.007474 0.000000 0.999972
vn 0.007474 0.000000 0.999972
vn 0.007474 0.000000 0.999972
vn 0.999972 0.000000 -0.007474
vn 0.999972 0.000000 -0.007474
vn 0.999972 0.000000 -0.007474
vn 0.999972 0.000000 -0.007474
vn -0.004727 0.774591 -0.632445
vn -0.004727 0.774591 -0.632445
vn -0.004727 0.774591 -0.632445
vn -0.004727 0.774591 -0.632445
vn -0.584426 0.811435 0.004368
vn -0.584426 0.811435 0.004368
vn -0.584426 0.811435 0.004368
vn -0.584426 0.811435 0.004368
vn 0.004727 0.774591 0.632445
vn 0.004727 0.774591 0.632445
vn 0.004727 0.774591 0.632445
vn 0.004727 0.774591 0.632445
vn 0.584426 0.811435 -0.004368
vn 0.584426 0.811435 -0.004368
vn 0.584426 0.811435 -0.004368
vn 0.584426 0.811435 -0.004368
vn -0.828210 0.140950 0.542404
vn -0.828210 0.140950 0.542404
vn -0.828210 0.140950 0.542404
vn -0.836225 0.140950 -0.529964
vn -0.836225 0.140950 -0.529964
vn -0.836225 0.140950 -0.529964
vn 0.856096 -0.030292 0.515929
vn 0.856096 -0.030292 0.515929
vn 0.856096 -0.030292 0.515929
vn 0.848288 -0.030293 -0.528667
vn 0.848288 -0.030293 -0.528667
vn 0.848288 -0.030293 -0.528667
vn -0.177317 0.282395 -0.942768
vn -0.177317 0.282395 -0.942768
vn -0.177317 0.282395 -0.942768
vn -0.177317 0.282395 -0.942768
vn -0.004555 0.792769 -0.609505
vn -0.004555 0.792769 -0.609505
vn -0.004555 0.792769 -0.609505
vn -0.004555 0.792769 -0.609505
vn -0.007474 0.000000 -0.999972
vn -0.007474 0.000000 -0.999972
vn -0.007474 0.000000 -0.999972
vn -0.007474 0.000000 -0.999972
vn -0.004727 0.774591 -0.632444
vn -0.004727 0.774591 -0.632444
vn -0.004727 0.774591 -0.632444
vn -0.004727 0.774591 -0.632444
vn 0.000000 1.000000 -0.000000
vn 0.000000 1.000000 -0.000000
vn 0.000000 1.000000 -0.000000
vn 0.000000 1.000000 -0.000000
vn 0.004727 0.774591 0.632445
vn 0.004727 0.774591 0.632445
vn 0.004727 0.774591 0.632445
vn 0.004727 0.774591 0.632445
vn 0.007474 0.000000 0.999972
vn 0.007474 0.000000 0.999972
vn 0.007474 0.000000 0.999972
vn 0.007474 0.000000 0.999972
vn 0.004556 0.792769 0.609505
vn 0.004556 0.792769 0.609505
vn 0.004556 0.792769 0.609505
vn 0.004556 0.792769 0.609505
vn -0.163206 0.282395 0.945313
vn -0.163206 0.282395 0.945313
vn -0.163206 0.282395 0.945313
vn -0.163206 0.282395 0.945313
vn -0.266789 0.010463 0.963698
vn -0.266789 0.010463 0.963698
vn -0.266789 0.010463 0.963698
vn 0.266789 0.010463 -0.963698
vn 0.266789 0.010463 -0.963698
vn 0.266789 0.010463 -0.963698
s off
g pPlatonic1
usemtl initialShadingGroup
f 1/41/1 13/42/2 12/20/3 2/19/4
f 1/41/5 29/4/6 30/6/7 13/42/8
f 29/4/9 4/2/10 3/1/11
f 1/41/12 5/47/13 4/2/14
f 1/41/15 2/19/16 28/45/17
f 2/19/18 12/20/19 17/21/20
f 3/1/21 4/2/22 8/3/23
f 4/22/24 5/23/25 9/24/26
f 6/10/27 28/11/28 2/12/29
f 2/12/30 17/14/31 16/15/32 6/10/33
f 18/26/34 11/27/35 7/28/36
f 3/1/37 8/3/38 27/5/39
f 4/22/40 9/24/41 8/25/42
f 5/13/43 6/10/44 9/16/45
f 6/10/46 16/15/47 37/17/48 38/18/49
f 10/49/50 27/50/51 8/51/52
f 8/51/53 9/16/54 10/49/55
f 9/16/56 6/10/57 38/18/58
f 11/9/59 14/7/60 3/1/61 7/8/62
f 15/52/63 18/26/64 7/28/65 10/49/66
f 23/29/67 33/30/68 34/31/69 26/32/70
f 30/6/71 31/58/72 12/20/73 13/42/74
f 36/54/75 37/17/76 16/15/77 17/14/78
f 12/43/79 31/44/80 32/34/81 19/33/82
f 11/56/83 18/60/84 21/40/85 20/39/86
f 35/37/87 36/57/88 17/55/89 22/38/90
f 17/48/91 12/59/92 19/33/93 22/38/94
f 19/33/95 32/34/96 33/30/97 23/29/98
f 20/39/99 21/40/100 25/36/101 24/35/102
f 34/31/103 35/37/104 22/38/105 26/32/106
f 22/38/107 19/33/108 23/29/109 26/32/110
f 7/28/111 27/50/112 10/49/113
f 3/1/114 27/5/115 7/8/116
f 5/13/117 28/11/118 6/10/119
f 1/41/120 28/45/121 5/47/122
f 30/6/123 29/4/124 3/1/125 14/7/126
f 11/9/127 31/58/128 30/6/129 14/7/130
f 32/34/131 31/44/132 11/46/133 20/39/134
f 33/30/135 32/34/136 20/39/137 24/35/138
f 34/31/139 33/30/140 24/35/141 25/36/142
f 21/40/143 35/37/144 34/31/145 25/36/146
f 18/53/147 36/57/148 35/37/149 21/40/150
f 15/52/151 37/17/152 36/54/153 18/26/154
f 38/18/155 37/17/156 15/52/157 10/49/158
f 9/16/159 38/18/160 10/49/161
f 1/41/162 4/2/163 29/4/164
