# This file uses centimeters as units for non-parametric coordinates.

mtllib Platform1.mtl
g default
v -1.846832 3.074681 -4.950773
v -0.754061 -11.000176 -3.022610
v 2.868926 -8.517867 -2.848392
v 2.845651 3.074681 2.912914
v -2.218527 -8.517865 0.295646
v 1.404461 -11.000178 0.469864
v -0.241929 2.919475 -9.562483
v 0.357586 0.827642 -9.457354
v 6.416961 1.484449 -5.468078
v 6.085299 3.009418 -5.240715
v -6.280047 2.919474 -5.054525
v -6.740805 0.827641 -4.696895
v -7.149984 3.009418 3.046150
v -7.262944 1.484449 3.194351
v 7.656994 0.827641 2.353317
v 7.543018 2.919474 3.076664
v 0.958545 2.919475 7.081293
v 0.286784 0.827642 6.837281
v -7.809690 2.284559 3.505671
v -7.671286 2.956676 -1.547885
v -4.036911 1.621670 5.570025
v 0.538127 2.114096 7.429825
v -3.415262 2.956677 5.651448
v 5.224761 2.904148 6.994373
v 4.925433 1.358879 6.435632
v -1.088611 3.038562 -8.225678
v 2.641615 3.065775 -5.739709
v -4.541998 3.038562 -5.085136
v -0.574852 -3.512088 -6.524309
v -3.966221 -3.512087 -4.428352
v 1.829190 -3.210015 -6.575518
v 5.404378 -2.078306 -4.415418
v 0.325200 3.087058 -1.276373
v 5.353261 3.065775 -1.352174
v -4.774774 3.065775 -1.155075
v -5.087163 -3.210015 -2.301093
v 5.737563 -3.210015 -0.251654
v 6.141857 3.038562 3.639706
v -2.268502 3.065775 3.224283
v -4.753978 -2.078307 1.862672
v 4.616620 -3.512087 1.875605
v 1.973459 3.038562 6.210035
v -1.178790 -3.210015 4.022772
v 1.225252 -3.512087 3.971562
v 0.928078 -11.591281 -3.083440
v 2.211177 -11.591280 -1.007391
v 0.325200 -13.575177 -1.276373
v -0.277678 -11.591273 0.530694
v -1.560777 -11.591270 -1.545356
v 0.124854 2.114096 -10.043843
v -3.707527 1.358878 -7.959747
v -7.040523 2.114095 -5.072297
v -3.848446 2.904148 -8.232634
v 3.634999 2.956677 -8.535492
v 6.802515 2.284560 -5.747545
v 4.232756 1.621671 -8.365529
v 8.297125 2.956676 -0.992017
v 8.088446 2.114095 2.849332
v 8.389979 1.621670 -1.639005
v -7.848675 1.621670 -0.890401
v 1.016153 -13.326498 -1.703361
v -0.365753 -13.326498 -0.849386
v -4.033336 2.080003 -8.483054
v 4.303116 2.216374 -8.829045
v 8.847469 2.216374 -1.476132
v -8.258957 2.216374 -1.062506
v -4.104070 2.216374 5.987709
v 5.290423 2.080003 7.057445
v 1.905040 3.043612 -7.831920
v -3.362178 3.025176 -7.514179
v -2.959843 -1.640763 -6.591657
v 0.764624 -5.877214 -5.515728
v 3.791742 -1.216146 -6.796497
v 2.978710 3.078721 -2.916333
v -6.001506 3.043612 -2.603595
v -3.663175 -5.877217 -2.779290
v 6.812877 -1.216146 -1.908200
v 6.895186 3.043612 0.242305
v -2.376668 3.078721 0.388915
v -6.162477 -1.216146 -0.644546
v 4.313574 -5.877215 0.226544
v 4.850673 3.025176 6.410428
v -1.467528 3.043612 5.020497
v -3.162636 -1.216146 4.259123
v -0.114224 -5.877216 2.962982
v 3.611217 -1.640763 4.041181
vt 0.297057 0.439127
vt 0.303543 0.460228
vt 0.204401 0.458430
vt 0.208181 0.442746
vt 0.364308 0.442746
vt 0.375067 0.458430
vt 0.291780 0.479344
vt 0.193165 0.477953
vt 0.104004 0.455733
vt 0.115517 0.421806
vt 0.214430 0.367907
vt 0.272624 0.345170
vt 0.368254 0.477953
vt 0.327890 0.367907
vt 0.098728 0.476972
vt 0.006332 0.454834
vt 0.020764 0.435816
vt 0.175980 0.315324
vt 0.236252 0.175344
vt 0.322761 0.315324
vt 0.007795 0.476568
vt 0.076341 0.356709
vt 0.126605 0.307358
vt 0.164881 0.244984
vt 0.193521 0.094291
vt 0.241708 0.094291
vt 0.298163 0.244984
vt 0.159233 0.109880
vt 0.077956 0.307358
vt 0.209675 0.048530
vt 0.199765 0.041971
vt 0.120015 0.946261
vt 0.119603 0.925021
vt 0.212673 0.927719
vt 0.201407 0.947242
vt 0.046249 0.945857
vt 0.040437 0.924122
vt 0.128316 0.891095
vt 0.216667 0.912035
vt 0.318703 0.929517
vt 0.308037 0.948633
vt 0.052583 0.905105
vt 0.183924 0.784613
vt 0.222374 0.837195
vt 0.311477 0.908416
vt 0.376313 0.927719
vt 0.368508 0.947242
vt 0.084338 0.825997
vt 0.134549 0.776646
vt 0.172825 0.714273
vt 0.244196 0.644633
vt 0.280568 0.814458
vt 0.366618 0.912035
vt 0.167177 0.579169
vt 0.085901 0.776646
vt 0.201465 0.563580
vt 0.330705 0.784613
vt 0.336191 0.837195
vt 0.207709 0.511260
vt 0.217619 0.517818
vt 0.249652 0.563580
vt 0.306107 0.714273
vt 0.771750 0.557286
vt 0.752099 0.525909
vt 0.821583 0.516667
vt 0.861737 0.533181
vt 0.688041 0.526072
vt 0.699328 0.509210
vt 0.734500 0.449044
vt 0.838679 0.467561
vt 0.918609 0.455849
vt 0.631602 0.451479
vt 0.671943 0.452197
vt 0.784914 0.362802
vt 0.846503 0.401294
vt 0.901618 0.364581
vt 0.599310 0.369174
vt 0.638067 0.393953
vt 0.666540 0.359955
vt 0.722202 0.323716
vt 0.843415 0.264475
vt 0.937407 0.327157
vt 0.969947 0.356128
vt 0.611410 0.261347
vt 0.724712 0.257166
vt 0.919922 0.247416
vt 0.952444 0.260631
vt 0.698095 0.200199
vt 0.743304 0.215007
vt 0.823171 0.187088
vt 0.889953 0.182384
vt 0.898636 0.168679
vt 0.799614 0.166638
vt 0.442573 0.421219
vt 0.481617 0.436807
vt 0.483661 0.482569
vt 0.467624 0.489127
vt 0.446733 0.223741
vt 0.477823 0.286115
vt 0.468375 0.109293
vt 0.502532 0.215775
vt 0.558320 0.088352
vt 0.548084 0.163192
vt 0.391376 0.174390
vt 0.374021 0.095283
vt 0.462973 0.075366
vt 0.559953 0.072669
vt 0.366459 0.076265
vt 0.454460 0.054126
vt 0.544446 0.053145
vt 0.370751 0.054530
vt 0.587793 0.478607
vt 0.548750 0.463018
vt 0.546705 0.417256
vt 0.562743 0.410698
vt 0.583634 0.676084
vt 0.552544 0.613711
vt 0.561851 0.790533
vt 0.527834 0.684051
vt 0.461496 0.811473
vt 0.481788 0.736634
vt 0.639013 0.725435
vt 0.669517 0.804543
vt 0.459937 0.827157
vt 0.567685 0.824459
vt 0.677989 0.823560
vt 0.475924 0.846680
vt 0.577443 0.845699
vt 0.676465 0.845295
vn -0.243018 -0.611807 -0.752751
vn -0.243018 -0.611807 -0.752751
vn -0.243018 -0.611807 -0.752751
vn -0.243018 -0.611807 -0.752751
vn 0.774866 -0.412594 -0.478904
vn 0.774866 -0.412594 -0.478904
vn 0.774866 -0.412594 -0.478904
vn 0.774866 -0.412594 -0.478904
vn 0.564559 -0.611812 0.554038
vn 0.564559 -0.611812 0.554038
vn 0.564559 -0.611812 0.554038
vn 0.564559 -0.611812 0.554038
vn -0.564562 -0.611812 -0.554037
vn -0.564562 -0.611812 -0.554037
vn -0.564562 -0.611812 -0.554037
vn -0.564562 -0.611812 -0.554037
vn 0.243015 -0.611807 0.752752
vn 0.243015 -0.611807 0.752752
vn 0.243015 -0.611807 0.752752
vn 0.243015 -0.611807 0.752752
vn -0.774866 -0.412594 0.478904
vn -0.774866 -0.412594 0.478904
vn -0.774866 -0.412594 0.478904
vn -0.774866 -0.412594 0.478904
vn -0.327981 0.356294 -0.874919
vn -0.327981 0.356294 -0.874919
vn -0.327981 0.356294 -0.874919
vn -0.327981 0.356294 -0.874919
vn -0.324360 -0.525166 -0.786760
vn -0.324360 -0.525166 -0.786760
vn -0.324360 -0.525166 -0.786760
vn -0.324360 -0.525166 -0.786760
vn -0.636012 -0.471601 -0.610803
vn -0.636012 -0.471601 -0.610803
vn -0.636012 -0.471601 -0.610803
vn -0.636012 -0.471601 -0.610803
vn -0.673557 0.482865 -0.559610
vn -0.673557 0.482865 -0.559610
vn -0.673557 0.482865 -0.559610
vn -0.673557 0.482865 -0.559610
vn 0.291936 -0.446818 -0.845652
vn 0.291936 -0.446818 -0.845652
vn 0.463236 -0.485875 -0.741173
vn 0.578977 -0.447871 -0.681320
vn 0.215256 0.549015 -0.807618
vn 0.215256 0.549015 -0.807618
vn 0.215256 0.549015 -0.807618
vn 0.215256 0.549015 -0.807618
vn 0.530056 0.733550 -0.425377
vn 0.530056 0.733550 -0.425377
vn 0.530056 0.733550 -0.425377
vn 0.530056 0.733550 -0.425377
vn 0.578977 -0.447871 -0.681320
vn 0.463236 -0.485875 -0.741173
vn 0.733777 -0.505719 -0.453673
vn 0.772120 -0.417377 -0.479195
vn 0.772120 -0.417377 -0.479195
vn 0.733777 -0.505719 -0.453673
vn 0.863729 -0.491562 -0.111082
vn 0.875622 -0.453422 -0.166417
vn 0.613957 0.731593 -0.296359
vn 0.613957 0.731593 -0.296359
vn 0.613957 0.731593 -0.296359
vn 0.613957 0.731593 -0.296359
vn 0.838528 0.520896 0.159809
vn 0.838528 0.520896 0.159809
vn 0.838528 0.520896 0.159809
vn 0.838528 0.520896 0.159809
vn 0.875622 -0.453422 -0.166417
vn 0.863729 -0.491562 -0.111082
vn 0.790717 -0.516665 0.328367
vn 0.764804 -0.545326 0.343066
vn -0.764146 0.582954 -0.276126
vn -0.764146 0.582954 -0.276126
vn -0.764146 0.582954 -0.276126
vn -0.764146 0.582954 -0.276126
vn -0.890082 -0.399702 -0.219074
vn -0.890082 -0.399702 -0.219074
vn -0.890082 -0.399702 -0.219074
vn -0.890082 -0.399702 -0.219074
vn -0.816624 -0.569607 0.093134
vn -0.816624 -0.569607 0.093134
vn -0.816624 -0.569607 0.093134
vn -0.816624 -0.569607 0.093134
vn -0.737130 0.672197 0.069213
vn -0.737130 0.672197 0.069213
vn -0.737130 0.672197 0.069213
vn -0.737130 0.672197 0.069213
vn -0.399069 0.693248 0.600126
vn -0.399069 0.693248 0.600126
vn -0.399069 0.693248 0.600126
vn -0.399069 0.693248 0.600126
vn -0.470754 -0.562457 0.679730
vn -0.470754 -0.562457 0.679730
vn -0.470754 -0.562457 0.679730
vn -0.470754 -0.562457 0.679730
vn -0.300358 -0.428281 0.852268
vn -0.300358 -0.428281 0.852268
vn -0.300358 -0.428281 0.852268
vn -0.300358 -0.428281 0.852268
vn -0.248708 0.535923 0.806803
vn -0.248708 0.535923 0.806803
vn -0.248708 0.535922 0.806803
vn -0.248708 0.535923 0.806803
vn 0.764804 -0.545326 0.343066
vn 0.790717 -0.516665 0.328367
vn 0.424712 -0.574399 0.699776
vn 0.497199 -0.576649 0.648282
vn 0.817652 0.254578 0.516368
vn 0.817652 0.254578 0.516368
vn 0.817652 0.254578 0.516368
vn 0.817652 0.254578 0.516368
vn 0.050728 0.234188 0.970867
vn 0.050728 0.234188 0.970867
vn 0.050728 0.234188 0.970867
vn 0.050728 0.234188 0.970867
vn 0.497199 -0.576649 0.648282
vn 0.424712 -0.574399 0.699776
vn 0.097493 -0.536844 0.838030
vn 0.097493 -0.536844 0.838030
vn -0.000407 0.995603 -0.093677
vn -0.009721 0.999003 -0.043569
vn 0.010106 0.999314 -0.035637
vn 0.023673 0.998906 -0.040337
vn -0.004402 0.999968 -0.006658
vn 0.009807 0.999869 -0.012866
vn 0.010106 0.999314 -0.035637
vn -0.009721 0.999003 -0.043569
vn 0.022434 0.999646 -0.014304
vn 0.023673 0.998906 -0.040337
vn 0.010106 0.999314 -0.035637
vn 0.009807 0.999869 -0.012866
vn -0.000407 0.995603 -0.093677
vn -0.070336 0.993485 -0.089670
vn -0.038528 0.998192 -0.046129
vn -0.009721 0.999003 -0.043569
vn -0.077962 0.995802 -0.047957
vn -0.035443 0.999074 -0.024376
vn -0.038528 0.998192 -0.046129
vn -0.070336 0.993485 -0.089670
vn -0.004402 0.999968 -0.006658
vn -0.009721 0.999003 -0.043569
vn -0.038528 0.998192 -0.046129
vn -0.035443 0.999074 -0.024376
vn -0.353510 -0.466323 -0.810909
vn -0.353510 -0.466323 -0.810909
vn -0.353510 -0.466323 -0.810909
vn -0.353510 -0.466323 -0.810909
vn -0.479729 -0.409061 -0.776227
vn -0.479729 -0.409061 -0.776227
vn -0.479729 -0.409061 -0.776227
vn -0.479729 -0.409061 -0.776227
vn -0.615331 -0.441002 -0.653364
vn -0.615331 -0.441002 -0.653364
vn -0.615331 -0.441002 -0.653364
vn -0.615331 -0.441002 -0.653364
vn 0.044990 -0.504246 -0.862387
vn 0.044990 -0.504246 -0.862387
vn 0.044990 -0.504246 -0.862387
vn 0.044990 -0.504246 -0.862387
vn 0.508082 -0.377241 -0.774301
vn 0.508082 -0.377241 -0.774301
vn 0.508082 -0.377241 -0.774301
vn 0.508082 -0.377241 -0.774301
vn -0.114127 -0.407172 -0.906193
vn -0.114127 -0.407171 -0.906193
vn -0.114127 -0.407172 -0.906193
vn -0.114127 -0.407172 -0.906193
vn 0.346566 -0.472589 -0.810278
vn 0.346566 -0.472589 -0.810278
vn 0.346566 -0.472589 -0.810278
vn 0.346567 -0.472589 -0.810278
vn 0.772120 -0.417377 -0.479195
vn 0.706612 -0.399655 -0.583932
vn 0.706612 -0.399655 -0.583932
vn 0.578977 -0.447871 -0.681320
vn 0.561977 -0.447253 -0.695807
vn 0.561977 -0.447253 -0.695807
vn 0.561977 -0.447253 -0.695807
vn 0.561977 -0.447253 -0.695807
vn 0.022434 0.999646 -0.014304
vn 0.009807 0.999869 -0.012866
vn 0.006323 0.999973 -0.003862
vn 0.016253 0.999861 -0.003599
vn -0.004402 0.999968 -0.006658
vn -0.000004 1.000000 0.000011
vn 0.006323 0.999973 -0.003862
vn 0.009807 0.999869 -0.012866
vn 0.003578 0.999976 0.006008
vn 0.016253 0.999861 -0.003599
vn 0.006323 0.999973 -0.003862
vn -0.000004 1.000000 0.000011
vn -0.004402 0.999968 -0.006658
vn -0.035443 0.999074 -0.024376
vn -0.038122 0.999159 -0.015109
vn -0.015394 0.999881 0.000012
vn -0.077962 0.995802 -0.047957
vn -0.042762 0.999057 -0.007522
vn -0.038122 0.999159 -0.015109
vn -0.035443 0.999074 -0.024376
vn -0.018058 0.999785 0.010187
vn -0.015394 0.999881 0.000012
vn -0.038122 0.999159 -0.015109
vn -0.042762 0.999057 -0.007522
vn -0.805767 -0.472120 -0.357551
vn -0.805767 -0.472120 -0.357551
vn -0.805767 -0.472120 -0.357551
vn -0.805767 -0.472120 -0.357551
vn -0.759464 -0.407170 -0.507372
vn -0.759464 -0.407170 -0.507372
vn -0.759464 -0.407170 -0.507372
vn -0.759464 -0.407170 -0.507372
vn -0.919777 -0.377240 0.108163
vn -0.919777 -0.377240 0.108163
vn -0.919777 -0.377240 0.108163
vn -0.919777 -0.377240 0.108163
vn 0.873673 -0.447251 -0.191474
vn 0.873673 -0.447251 -0.191474
vn 0.873673 -0.447251 -0.191474
vn 0.873673 -0.447251 -0.191474
vn 0.772120 -0.417377 -0.479195
vn 0.875622 -0.453422 -0.166417
vn 0.837699 -0.386201 -0.386146
vn 0.837699 -0.386201 -0.386146
vn 0.764804 -0.545326 0.343066
vn 0.881528 -0.469421 0.050518
vn 0.881528 -0.469421 0.050518
vn 0.875622 -0.453422 -0.166417
vn 0.022434 0.999646 -0.014304
vn 0.016253 0.999861 -0.003599
vn 0.036115 0.999339 0.004245
vn 0.047668 0.998849 -0.005400
vn 0.003578 0.999976 0.006008
vn 0.037794 0.999086 0.019973
vn 0.036115 0.999339 0.004245
vn 0.016253 0.999861 -0.003599
vn 0.096634 0.994762 0.033318
vn 0.047668 0.998849 -0.005400
vn 0.036115 0.999339 0.004245
vn 0.037794 0.999086 0.019973
vn -0.004402 0.999968 -0.006658
vn -0.015394 0.999881 0.000012
vn -0.005440 0.999980 0.003199
vn -0.000004 1.000000 0.000011
vn -0.018058 0.999785 0.010187
vn -0.007877 0.999883 0.013119
vn -0.005440 0.999980 0.003199
vn -0.015394 0.999881 0.000012
vn 0.003578 0.999976 0.006008
vn -0.000004 1.000000 0.000011
vn -0.005440 0.999980 0.003199
vn -0.007877 0.999883 0.013119
vn -0.876456 -0.468468 -0.111188
vn -0.876456 -0.468468 -0.111188
vn -0.876456 -0.468468 -0.111188
vn -0.876456 -0.468468 -0.111188
vn -0.873673 -0.447251 0.191474
vn -0.873673 -0.447251 0.191474
vn -0.873673 -0.447251 0.191474
vn -0.873673 -0.447251 0.191474
vn -0.812713 -0.559989 0.160968
vn -0.812713 -0.559989 0.160968
vn -0.812713 -0.559989 0.160968
vn -0.812713 -0.559989 0.160968
vn 0.919777 -0.377240 -0.108163
vn 0.919777 -0.377240 -0.108163
vn 0.919777 -0.377240 -0.108163
vn 0.919777 -0.377240 -0.108163
vn 0.791458 -0.504242 0.345450
vn 0.791458 -0.504242 0.345450
vn 0.791458 -0.504242 0.345450
vn 0.791458 -0.504242 0.345450
vn 0.759464 -0.407170 0.507372
vn 0.759464 -0.407170 0.507372
vn 0.759464 -0.407170 0.507372
vn 0.759464 -0.407170 0.507372
vn 0.096634 0.994762 0.033318
vn 0.037794 0.999086 0.019973
vn 0.030757 0.998222 0.051055
vn 0.073352 0.990540 0.115970
vn 0.003578 0.999976 0.006008
vn -0.001437 0.999058 0.043368
vn 0.030757 0.998222 0.051055
vn 0.037794 0.999086 0.019973
vn -0.019967 0.994651 0.101344
vn 0.073352 0.990540 0.115970
vn 0.030757 0.998222 0.051055
vn -0.001437 0.999058 0.043368
vn 0.003578 0.999976 0.006008
vn -0.007877 0.999883 0.013119
vn -0.011276 0.999276 0.036332
vn -0.001437 0.999058 0.043368
vn -0.018058 0.999785 0.010187
vn -0.019467 0.998828 0.044312
vn -0.011276 0.999276 0.036332
vn -0.007877 0.999883 0.013119
vn -0.019967 0.994651 0.101344
vn -0.001437 0.999058 0.043368
vn -0.011276 0.999276 0.036332
vn -0.019467 0.998828 0.044312
vn -0.528926 -0.547354 0.648569
vn -0.528926 -0.547354 0.648569
vn -0.528926 -0.547354 0.648569
vn -0.528926 -0.547354 0.648569
vn -0.561862 -0.449578 0.694399
vn -0.561862 -0.449578 0.694399
vn -0.561862 -0.449578 0.694399
vn -0.561862 -0.449578 0.694399
vn -0.338392 -0.462586 0.819454
vn -0.338392 -0.462586 0.819454
vn -0.338392 -0.462586 0.819454
vn -0.338392 -0.462586 0.819454
vn -0.508082 -0.377241 0.774301
vn -0.508082 -0.377241 0.774301
vn -0.508082 -0.377241 0.774301
vn -0.508082 -0.377241 0.774301
vn 0.114126 -0.407172 0.906193
vn 0.114126 -0.407172 0.906193
vn 0.114126 -0.407172 0.906193
vn 0.114126 -0.407172 0.906193
vn -0.044105 -0.497849 0.866142
vn -0.044105 -0.497849 0.866142
vn -0.044105 -0.497849 0.866142
vn -0.044105 -0.497849 0.866142
vn 0.479683 -0.409259 0.776152
vn 0.479683 -0.409259 0.776152
vn 0.479683 -0.409259 0.776152
vn 0.479683 -0.409259 0.776152
vn 0.764804 -0.545326 0.343066
vn 0.497199 -0.576649 0.648282
vn 0.587768 -0.572455 0.571685
vn 0.587768 -0.572455 0.571685
vn 0.233511 -0.574305 0.784631
vn 0.233511 -0.574305 0.784631
vn 0.233511 -0.574305 0.784631
vn 0.233511 -0.574305 0.784631
s off
g pPlatonic1
usemtl pPlatonic1SG
f 2/94/1 45/95/2 61/96/3 47/97/4
f 3/19/5 46/25/6 61/30/7 45/26/8
f 6/28/9 47/31/10 61/30/11 46/25/12
f 2/54/13 47/59/14 62/60/15 49/56/16
f 6/112/17 48/113/18 62/114/19 47/115/20
f 5/51/21 49/56/22 62/60/23 48/61/24
f 7/109/25 50/106/26 63/108/27 53/111/28
f 50/106/29 8/100/30 51/105/31 63/108/32
f 63/37/33 51/42/34 12/38/35 52/33/36
f 53/36/37 63/37/38 52/33/39 11/32/40
f 8/100/41 50/106/42 64/107/43 56/102/44
f 50/106/45 7/109/46 54/110/47 64/107/48
f 64/6/49 54/13/50 10/7/51 55/2/52
f 56/5/53 64/6/54 55/2/55 9/1/56
f 9/1/57 55/2/58 65/3/59 59/4/60
f 55/2/61 10/7/62 57/8/63 65/3/64
f 65/3/65 57/8/66 16/15/67 58/9/68
f 59/4/69 65/3/70 58/9/71 15/10/72
f 11/32/73 52/33/74 66/34/75 20/35/76
f 52/33/77 12/38/78 60/39/79 66/34/80
f 66/34/81 60/39/82 14/45/83 19/40/84
f 20/35/85 66/34/86 19/40/87 13/41/88
f 13/41/89 19/40/90 67/46/91 23/47/92
f 19/40/93 14/45/94 21/53/95 67/46/96
f 67/124/97 21/120/98 18/118/99 22/125/100
f 23/127/101 67/124/102 22/125/103 17/128/104
f 15/10/105 58/9/106 68/16/107 25/17/108
f 58/9/109 16/15/110 24/21/111 68/16/112
f 68/126/113 24/129/114 17/128/115 22/125/116
f 25/123/117 68/126/118 22/125/119 18/118/120
f 7/63/121 26/64/122 69/65/123 54/66/124
f 1/69/125 27/70/126 69/65/127 26/64/128
f 10/71/129 54/66/130 69/65/131 27/70/132
f 7/63/133 53/67/134 70/68/135 26/64/136
f 11/72/137 28/73/138 70/68/139 53/67/140
f 1/69/141 26/64/142 70/68/143 28/73/144
f 8/100/145 29/98/146 71/104/147 51/105/148
f 2/54/149 30/49/150 71/48/151 29/55/152
f 12/38/153 51/42/154 71/48/155 30/49/156
f 8/100/157 31/101/158 72/99/159 29/98/160
f 3/19/161 45/26/162 72/27/163 31/20/164
f 2/94/165 29/98/166 72/99/167 45/95/168
f 8/100/169 56/102/170 73/103/171 31/101/172
f 9/1/173 32/12/174 73/14/175 56/5/176
f 3/19/177 31/20/178 73/14/179 32/12/180
f 10/71/181 27/70/182 74/75/183 34/76/184
f 1/69/185 33/74/186 74/75/187 27/70/188
f 4/81/189 34/76/190 74/75/191 33/74/192
f 1/69/193 28/73/194 75/78/195 35/79/196
f 11/72/197 20/77/198 75/78/199 28/73/200
f 13/84/201 35/79/202 75/78/203 20/77/204
f 12/38/205 30/49/206 76/50/207 36/43/208
f 2/54/209 49/56/210 76/50/211 30/49/212
f 5/51/213 36/43/214 76/50/215 49/56/216
f 3/19/217 32/12/218 77/11/219 37/18/220
f 9/1/221 59/4/222 77/11/223 32/12/224
f 15/10/225 37/18/226 77/11/227 59/4/228
f 10/71/229 34/76/230 78/82/231 57/83/232
f 4/81/233 38/86/234 78/82/235 34/76/236
f 16/87/237 57/83/238 78/82/239 38/86/240
f 1/69/241 35/79/242 79/80/243 33/74/244
f 13/84/245 39/85/246 79/80/247 35/79/248
f 4/81/249 33/74/250 79/80/251 39/85/252
f 12/38/253 36/43/254 80/44/255 60/39/256
f 5/51/257 40/52/258 80/44/259 36/43/260
f 14/45/261 60/39/262 80/44/263 40/52/264
f 3/19/265 37/18/266 81/24/267 46/25/268
f 15/10/269 41/23/270 81/24/271 37/18/272
f 6/28/273 46/25/274 81/24/275 41/23/276
f 16/87/277 38/86/278 82/91/279 24/92/280
f 4/81/281 42/90/282 82/91/283 38/86/284
f 17/93/285 24/92/286 82/91/287 42/90/288
f 4/81/289 39/85/290 83/89/291 42/90/292
f 13/84/293 23/88/294 83/89/295 39/85/296
f 17/93/297 42/90/298 83/89/299 23/88/300
f 14/45/301 40/52/302 84/58/303 21/53/304
f 5/51/305 43/57/306 84/58/307 40/52/308
f 18/118/309 21/120/310 84/121/311 43/119/312
f 5/51/313 48/61/314 85/62/315 43/57/316
f 6/112/317 44/116/318 85/117/319 48/113/320
f 18/118/321 43/119/322 85/117/323 44/116/324
f 6/28/325 41/23/326 86/22/327 44/29/328
f 15/10/329 25/17/330 86/22/331 41/23/332
f 18/118/333 44/116/334 86/122/335 25/123/336
